PathFileType	4	(X/Y/Z)	67_1_13_p1_0-260_filt_butterworth.trc
DataRate	CameraRate	NumFrames	NumMarkers	Units	OrigDataRate	OrigDataStartFrame	OrigNumFrames
55.0	55.0	6	27	m	55.0	0	260
Frame#	Time	RHip			RKnee			RAnkle			RBigToe			RSmallToe			RHeel			LHip			LKnee			LAnkle			LBigToe			LSmallToe			LHeel			Neck			Head			Nose			RShoulder			RElbow			RWrist			RThumb			RIndex			RPinky			LShoulder			LElbow			LWrist			LThumb			LIndex			LPinky			
		X1	Y1	Z1	X2	Y2	Z2	X3	Y3	Z3	X4	Y4	Z4	X5	Y5	Z5	X6	Y6	Z6	X7	Y7	Z7	X8	Y8	Z8	X9	Y9	Z9	X10	Y10	Z10	X11	Y11	Z11	X12	Y12	Z12	X13	Y13	Z13	X14	Y14	Z14	X15	Y15	Z15	X16	Y16	Z16	X17	Y17	Z17	X18	Y18	Z18	X19	Y19	Z19	X20	Y20	Z20	X21	Y21	Z21	X22	Y22	Z22	X23	Y23	Z23	X24	Y24	Z24	X25	Y25	Z25	X26	Y26	Z26	X27	Y27	Z27	
0	0.0	0.3958627628518844	0.6763538267484543	0.713331855519166	0.3772466917689067	0.25469578417624994	0.7670861360379048	0.3652078107882396	-0.16427736540400495	0.8028015948989907	0.352885551619887	-0.2013684548804471	0.6604148327630295	0.4088523854747747	-0.17953400044701903	0.6592379130296806	0.33952281655439964	-0.24772445850232608	0.8894584273365338	0.19891169227814223	0.6666715083366537	0.717277800157671	0.17627080042365728	0.25457563728667354	0.7719601343762422	0.15463684387913862	-0.155668594746542	0.8075972726201448	0.18367301932752778	-0.16824974177827173	0.6240820130900109	0.12927882474296848	-0.18706938073686372	0.6754887319347549	0.15927557099301728	-0.22483257589421726	0.8402871124028571	0.3161486074467377	1.242250427329416	0.7089177409686775	0.3275346731411481	1.4732284416279673	0.6855923554336223	0.31354210766617496	1.3501148838993187	0.6225531407112403	0.4388171243664097	1.145860845687667	0.7111001746944858	0.4949432848359551	0.9133478589405661	0.6034393515425771	0.33406560721451894	0.8121575289464	0.448262315405056	0.2616995657373216	0.8001487491300617	0.45058893475136497	0.2205485930097591	0.7321846051794655	0.4433014162362155	0.2589046099756848	0.7385080257081161	0.38957221311795787	0.15470983493579524	1.1596990790104236	0.719509480982351	0.09336320893189304	0.9302226931832293	0.605650800155996	0.23254200580447001	0.8218555146797246	0.46160484471487695	0.2907658106060881	0.8153333293012466	0.4103544686234749	0.29301481921507083	0.7784513876415085	0.377884965737018	0.27765294732436746	0.7868925625723423	0.30085621960704556	
1	0.0181818181818181	0.3953448332288328	0.6759251048442058	0.7152302568556914	0.3763922429050906	0.25466679105623935	0.764871559528838	0.36526251791345554	-0.16497846086093387	0.8025168572385102	0.3519597656475708	-0.19680072684727687	0.6545052218983621	0.4083284066131133	-0.18104057753406394	0.6577353431241364	0.3395966572540293	-0.24866241065514597	0.8898022158800402	0.2003246969545104	0.6671629334754638	0.7174459368488866	0.1751552150139142	0.25409880761863823	0.7716854708012995	0.15453284852023993	-0.1547549589864052	0.8073311058810458	0.1842422313735439	-0.16904850022848042	0.6254687309145094	0.13248369977235896	-0.18757471924468647	0.6767720495333749	0.1591358376569147	-0.2230786160021046	0.8403705831985896	0.31543167788353377	1.2414990806808803	0.7108674383599827	0.3277136601531061	1.4716503168608313	0.6863825706673141	0.31350777011546815	1.3502190185042786	0.6224262950067607	0.43757193582112724	1.1458582838768052	0.7109394240787603	0.4959145896047774	0.9125374601270795	0.6007578464167043	0.33423907090306393	0.8091868252743464	0.4506931139483338	0.2562455801021147	0.8028933113213057	0.4634435425158766	0.21616589912470216	0.7320013667786327	0.44528812660491507	0.24825397973055058	0.7326650895689859	0.39768879467151386	0.15470361671601765	1.1596930738825542	0.7197420571453226	0.09222183460931159	0.9339602001859276	0.5991426612351768	0.22863208079105496	0.8214593508580227	0.46537951728388605	0.28929390865104426	0.8247810431636224	0.41268964778295963	0.28803043459379774	0.7816154603351284	0.3843511955076079	0.27327551821719587	0.7828860388600937	0.31905457027985845	
2	0.0363636363636363	0.39484825136208385	0.6754496259947915	0.7165943797506915	0.3756163613815999	0.2543868607604737	0.7633099898851722	0.36530656657341076	-0.16556804367470984	0.8022894527539116	0.3513728296964793	-0.1939991915403568	0.6507612896594454	0.4080841920824836	-0.18192975832583871	0.6572325188013128	0.3396625882954416	-0.24947900100184695	0.8900963724984998	0.2014007425244111	0.6674242920245932	0.7175825285381228	0.17422561322585287	0.2535799270305502	0.771488074655529	0.15444897011240072	-0.15401164960616306	0.807112626989273	0.18440113263765767	-0.16930483711571087	0.6259032242521733	0.1341691595181551	-0.18789648698596925	0.6775333890431935	0.15902785561597177	-0.22167958304530974	0.8404146715418619	0.31466039346756725	1.2408872205305996	0.7130221046768164	0.3277733542150596	1.4706602044190522	0.6866873418220881	0.3134860016746761	1.3502507756606765	0.6224064285131706	0.4365380717715132	1.1458641342042988	0.7108089395950008	0.4968495965895474	0.9122778707161674	0.5979389774314656	0.33410995546560424	0.8070515388852306	0.45350691687978884	0.2527688816635434	0.8045777251237299	0.4715917185580297	0.21350326154261795	0.7319355732552189	0.4472918708486901	0.24070249453904358	0.7286155404622684	0.4038681411294587	0.15470354631595637	1.159690666009257	0.7199208854873989	0.0915404209478916	0.9362421882677641	0.5953267602506427	0.22604025809043937	0.8213746940556722	0.4682378631684464	0.28823441260754024	0.8311313174780978	0.4136752290475785	0.28479559137807164	0.7832486604908903	0.3891291003329246	0.2693218096544036	0.7796123212468132	0.33143813952284096	
3	0.0545454545454545	0.394373965505955	0.6749350688159195	0.71747441771003	0.3749123935480949	0.25388969025474584	0.7623323527921709	0.36534077933548265	-0.1660545440442375	0.8021143666188882	0.35105645710142946	-0.19257087722497968	0.6487809896446471	0.4080519793397811	-0.18230075805294865	0.6574857746696805	0.3397205304037067	-0.2501790403390933	0.8903435974877801	0.20216606916333243	0.6674818961495907	0.7176894317258327	0.1734683331487431	0.25302661285586764	0.7713595708736594	0.15438386110042743	-0.1534271144362805	0.8069387854462855	0.18422283898129774	-0.16914415104866978	0.6256092461138226	0.13464696296132408	-0.18806734128426872	0.6778740859985318	0.15894887997169274	-0.2206060457987882	0.8404234495301282	0.31388041442426406	1.240416956274707	0.7152437923540913	0.3277517997792978	1.4701418591680682	0.686658004434263	0.31347657213922236	1.3502307522927743	0.6224670073398659	0.43574082435397354	1.1458754522980776	0.7107115571852585	0.49768036167371216	0.9123733243310378	0.5952587724123031	0.33369351196923336	0.8056271952018899	0.4565346340093004	0.2508604132566849	0.8053406574137866	0.4759528261619729	0.21222788375628204	0.7319392937615572	0.4492895503420624	0.2357076627390914	0.7259861925801119	0.40856207256228083	0.15470644043131307	1.1596908133738832	0.7200500027402356	0.09120454582708253	0.9373858882866394	0.5935357423247332	0.22451478582477447	0.8215256402910271	0.47029889272287684	0.287526696895005	0.834897412803228	0.4136922617619225	0.2830225136155256	0.7837120958945891	0.39243825505320995	0.26580274726799064	0.7769237033247778	0.339330412733001	
4	0.0727272727272727	0.3939229239147635	0.6743891119232974	0.7179205642395703	0.3742736857542365	0.25320897650484897	0.761869573935098	0.36536597876704857	-0.16644639216842178	0.8019865840071327	0.3509423611972382	-0.19212281216643798	0.6481622754523352	0.40816400584190154	-0.18225279194599964	0.6582514453377104	0.3397704043038947	-0.2507673394635489	0.8905465911437497	0.20264691704676252	0.6673620580160052	0.7177685029124696	0.1728697128718548	0.252446482428049	0.7712915843904187	0.15433617392912652	-0.15298980130722256	0.8068065307535416	0.18378046626589284	-0.16869184063606407	0.6248105495102774	0.13422886908283302	-0.1881199394631414	0.6778954759337101	0.1588961658255819	-0.21982857303749526	0.8404009892608425	0.3131374009790502	1.2400903973093362	0.7173945538267202	0.32768704129811	1.46997903597332	0.6864458940401579	0.3134792513045306	1.350179545324833	0.6225814975962426	0.4352054857049143	1.145889293786072	0.7106501127915836	0.49833894074071866	0.9126280545949002	0.5929932591846585	0.33300499148104457	0.804789319647161	0.45960717514674765	0.25011111771661637	0.8053207750679275	0.47744622861185493	0.21200696925847007	0.7319645974499812	0.4512580664595539	0.23272699266862176	0.7244038601146654	0.4122224090404688	0.15470911575778934	1.1596924739597838	0.7201334456354883	0.09109978712633386	0.9377085311004534	0.5931022525797875	0.2238039121162115	0.8218362855824416	0.4716816163014961	0.28711013593286766	0.8365925896975682	0.41312179527058274	0.28242342535379295	0.7833668743320193	0.39449823450870586	0.26272925668995684	0.7746724786862634	0.34405487530734635	
5	0.0909090909090909	0.39349607484282684	0.6738194339326332	0.7179830128451758	0.373693584349685	0.25237841647657594	0.7618525789992173	0.3653829874354859	-0.1667520182461674	0.8019010900923385	0.35096225531872327	-0.19226202463002665	0.648503100680878	0.4083525090457412	-0.18188507523559955	0.6592858654138744	0.33981213072107563	-0.2512487091718778	0.8907080537622758	0.20286952635018943	0.6670910897893855	0.7178215985984864	0.1724160904844578	0.2518471530805526	0.7712757401405348	0.15430456104330448	-0.1526881580494543	0.8067128124125003	0.1831471303528721	-0.16807330448660288	0.6237308874523587	0.13322663686364936	-0.18808693884614602	0.6776988943830502	0.1588669682791435	-0.2193177335363864	0.8403513628314587	0.31247701335735223	1.2399096530306215	0.719336441529617	0.3276171232237861	1.470055489700247	0.6862023461760927	0.31349380896602513	1.3501177516811156	0.6227233653916976	0.43495734796074237	1.145902714296212	0.7106274423560284	0.498757389674015	0.9128462951309629	0.5914184655739745	0.332059645068132	0.8044134376438817	0.4625554501020104	0.25011193787841557	0.8046567449626045	0.4769912891918251	0.21250772154195802	0.7319635534728235	0.45317432057568685	0.23121799266556292	0.7234953572580772	0.41530097063451155	0.1547083889910872	1.1596946057503106	0.720175250904814	0.09111172272509534	0.937527347567108	0.5933589361381464	0.22365588508690218	0.8222307259482703	0.47250504425862366	0.2869241041405579	0.8367301087196736	0.4123448789181505	0.2827105506405075	0.7825741035889762	0.3955286135396547	0.26011226355230277	0.7727109409235464	0.3469350126428852	
